<svg xmlns="http://www.w3.org/2000/svg" version="1.1" xmlns:xlink="http://www.w3.org/1999/xlink" xmlns:svgjs="http://svgjs.dev/svgjs" width="1440" height="560" preserveAspectRatio="none" viewBox="0 0 1440 560"><g mask="url(&quot;#SvgjsMask1000&quot;)" fill="none"><rect width="1440" height="560" x="0" y="0" fill="#0e2a47"></rect><path d="M645.06 499.96a21.31 21.31 0 1 0-25.55-34.11z" fill="#e73635"></path><path d="M959.96 340.17L966.85 340.17L966.85 347.06L959.96 347.06z" stroke="#037b0b"></path><path d="M490.22 450.72 a29.05 29.05 0 1 0 58.1 0 a29.05 29.05 0 1 0 -58.1 0z" stroke="#e73635"></path><path d="M346.28 159.91L394.54 159.91L394.54 208.17L346.28 208.17z" stroke="#d3b714"></path><path d="M1132.61 6.75a19.15 19.15 0 1 0 11.54 36.52z" stroke="#d3b714"></path><path d="M1157.87 142.66L1167.04 142.66L1167.04 151.83L1157.87 151.83z" fill="#d3b714"></path><path d="M89.11 167.13 a50.2 50.2 0 1 0 100.4 0 a50.2 50.2 0 1 0 -100.4 0z" fill="#e73635"></path><path d="M516.69 70.57 a9.6 9.6 0 1 0 19.2 0 a9.6 9.6 0 1 0 -19.2 0z" fill="#e73635"></path><path d="M347.18 288.76L362.04 288.76L362.04 303.62L347.18 303.62z" stroke="#037b0b"></path><path d="M181.12 293.06 a27.16 27.16 0 1 0 54.32 0 a27.16 27.16 0 1 0 -54.32 0z" stroke="#e73635"></path><path d="M836.58 362.69a10.83 10.83 0 1 0 19.13-10.16z" fill="#037b0b"></path><path d="M280.08 443.8L290.39 443.8L290.39 454.11L280.08 454.11z" stroke="#d3b714"></path><path d="M91.67 73.34L121.54 73.34L121.54 103.21L91.67 103.21z" fill="#037b0b"></path><path d="M855.78 34.49L909.95 34.49L909.95 88.66L855.78 88.66z" stroke="#d3b714"></path><path d="M968.71 193.93 a10.02 10.02 0 1 0 20.04 0 a10.02 10.02 0 1 0 -20.04 0z" stroke="#d3b714"></path><path d="M1122.05 213.69L1150.02 213.69L1150.02 241.66L1122.05 241.66z" stroke="#037b0b"></path><path d="M780.63 316.87L783.53 316.87L783.53 367.18L780.63 367.18z" stroke="#037b0b"></path><path d="M235.94 295.31L238.41 295.31L238.41 297.78L235.94 297.78z" stroke="#d3b714"></path><path d="M335.14 537.71 a36.01 36.01 0 1 0 72.02 0 a36.01 36.01 0 1 0 -72.02 0z" fill="#037b0b"></path><path d="M254.74 183.1 a8.95 8.95 0 1 0 17.9 0 a8.95 8.95 0 1 0 -17.9 0z" fill="#e73635"></path><path d="M490.42 70.17 a4.36 4.36 0 1 0 8.72 0 a4.36 4.36 0 1 0 -8.72 0z" stroke="#037b0b"></path><path d="M1211.56 204.45L1243.19 204.45L1243.19 246.77L1211.56 246.77z" fill="#e73635"></path><path d="M846.22 97.16L896.08 97.16L896.08 146.8L846.22 146.8z" stroke="#d3b714"></path><path d="M1267.19 478.45a44.92 44.92 0 1 0-68.76-57.82z" stroke="#e73635"></path><path d="M454.73 541.02 a50.12 50.12 0 1 0 100.24 0 a50.12 50.12 0 1 0 -100.24 0z" fill="#037b0b"></path><path d="M1142.75 50.63L1156.61 50.63L1156.61 53.05L1142.75 53.05z" fill="#e73635"></path><path d="M373.95 11.74L407.91 11.74L407.91 65.8L373.95 65.8z" fill="#037b0b"></path><path d="M10.97 414.78L51.92 414.78L51.92 430.16L10.97 430.16z" fill="#d3b714"></path><path d="M1410.74 492.98L1426.47 492.98L1426.47 508.71L1410.74 508.71z" stroke="#e73635"></path><path d="M964.86 257.3L978.52 257.3L978.52 278.14L964.86 278.14z" fill="#d3b714"></path><path d="M742.56 350.44a43.93 43.93 0 1 0 44.45-75.79z" stroke="#037b0b"></path><path d="M926.53 471.6L950.21 471.6L950.21 495.28L926.53 495.28z" fill="#d3b714"></path><path d="M353.02 330.86 a50.71 50.71 0 1 0 101.42 0 a50.71 50.71 0 1 0 -101.42 0z" stroke="#037b0b"></path></g><defs><mask id="SvgjsMask1000"><rect width="1440" height="560" fill="#ffffff"></rect></mask></defs></svg>