<svg xmlns="http://www.w3.org/2000/svg" version="1.1" xmlns:xlink="http://www.w3.org/1999/xlink" xmlns:svgjs="http://svgjs.dev/svgjs" width="1440" height="560" preserveAspectRatio="none" viewBox="0 0 1440 560"><g mask="url(&quot;#SvgjsMask1029&quot;)" fill="none"><path d="M1020.1589071158936 42.011477999933916L1089.982618595767 104.8810302042973 1152.8521708001304 35.05731872442397 1083.028459320257-27.812233479939422z" fill="rgba(191, 135, 22, 0.76)" class="triangle-float1"></path><path d="M415.86,575.066C447.03,574.008,478.97,565.146,495.109,538.458C511.744,510.951,507.708,476.781,492.386,448.521C476.215,418.695,449.78,393.016,415.86,392.289C380.891,391.539,351.137,414.949,333.432,445.114C315.476,475.706,307.714,514.218,326.714,544.172C344.769,572.636,382.172,576.209,415.86,575.066" fill="rgba(191, 135, 22, 0.76)" class="triangle-float1"></path><path d="M1082.108,183.182C1101.861,181.801,1117.926,169.728,1128.643,153.078C1140.574,134.542,1150.248,112.272,1140.463,92.519C1129.801,70.996,1106.122,58.632,1082.108,59.134C1058.895,59.619,1039.563,74.838,1027.829,94.873C1015.948,115.159,1010.443,140.451,1022.753,160.479C1034.642,179.821,1059.459,184.765,1082.108,183.182" fill="rgba(191, 135, 22, 0.76)" class="triangle-float2"></path><path d="M19.820032645665044 475.7020982477058L112.71960217442395 372.5266737068214 9.544177633539569 279.6271041780625-83.35539189521936 382.80252871894686z" fill="rgba(191, 135, 22, 0.76)" class="triangle-float2"></path><path d="M140.74052733582226 49.52124563684787L172.31690217373583 127.67551587671281 250.47117241360078 96.09914103879925 218.89479757568722 17.9448707989343z" fill="rgba(191, 135, 22, 0.76)" class="triangle-float1"></path><path d="M730.01 65.44 a94.2 94.2 0 1 0 188.4 0 a94.2 94.2 0 1 0 -188.4 0z" fill="rgba(191, 135, 22, 0.76)" class="triangle-float3"></path><path d="M751.92 325.34 a161.14 161.14 0 1 0 322.28 0 a161.14 161.14 0 1 0 -322.28 0z" fill="rgba(191, 135, 22, 0.76)" class="triangle-float2"></path></g><defs><mask id="SvgjsMask1029"><rect width="1440" height="560" fill="#ffffff"></rect></mask><style>
                @keyframes float1 {
                    0%{transform: translate(0, 0)}
                    50%{transform: translate(-10px, 0)}
                    100%{transform: translate(0, 0)}
                }

                .triangle-float1 {
                    animation: float1 5s infinite;
                }

                @keyframes float2 {
                    0%{transform: translate(0, 0)}
                    50%{transform: translate(-5px, -5px)}
                    100%{transform: translate(0, 0)}
                }

                .triangle-float2 {
                    animation: float2 4s infinite;
                }

                @keyframes float3 {
                    0%{transform: translate(0, 0)}
                    50%{transform: translate(0, -10px)}
                    100%{transform: translate(0, 0)}
                }

                .triangle-float3 {
                    animation: float3 6s infinite;
                }
            </style></defs></svg>